<?xml version="1.0" encoding="UTF-8" standalone="no"?>
<!-- Generator: Adobe Illustrator 12.0.0, SVG Export Plug-In . SVG Version: 6.00 Build 51448)  -->

<svg
   xmlns:dc="http://purl.org/dc/elements/1.1/"
   xmlns:cc="http://creativecommons.org/ns#"
   xmlns:rdf="http://www.w3.org/1999/02/22-rdf-syntax-ns#"
   xmlns:svg="http://www.w3.org/2000/svg"
   xmlns="http://www.w3.org/2000/svg"
   xmlns:sodipodi="http://sodipodi.sourceforge.net/DTD/sodipodi-0.dtd"
   xmlns:inkscape="http://www.inkscape.org/namespaces/inkscape"
   version="1.1"
   id="Layer_1"
   width="474.315"
   height="490.387"
   viewBox="0 0 474.315 490.387"
   overflow="visible"
   enable-background="new 0 0 474.315 490.387"
   xml:space="preserve"
   sodipodi:version="0.32"
   inkscape:version="0.47 r22583"
   sodipodi:docname="MapleLeaf.svg"
   inkscape:output_extension="org.inkscape.output.svg.inkscape"><metadata
   id="metadata8"><rdf:RDF><cc:Work
       rdf:about=""><dc:format>image/svg+xml</dc:format><dc:type
         rdf:resource="http://purl.org/dc/dcmitype/StillImage" /></cc:Work></rdf:RDF></metadata><defs
   id="defs6"><inkscape:perspective
     sodipodi:type="inkscape:persp3d"
     inkscape:vp_x="0 : 245.1935 : 1"
     inkscape:vp_y="0 : 1000 : 0"
     inkscape:vp_z="474.315 : 245.1935 : 1"
     inkscape:persp3d-origin="237.1575 : 163.46233 : 1"
     id="perspective10" /></defs><sodipodi:namedview
   inkscape:window-height="1002"
   inkscape:window-width="1280"
   inkscape:pageshadow="2"
   inkscape:pageopacity="0.0"
   guidetolerance="10.0"
   gridtolerance="10.0"
   objecttolerance="10.0"
   borderopacity="1.0"
   bordercolor="#666666"
   pagecolor="#ffffff"
   id="base"
   showgrid="false"
   inkscape:zoom="0.94211308"
   inkscape:cx="237.1575"
   inkscape:cy="245.1935"
   inkscape:window-x="1276"
   inkscape:window-y="92"
   inkscape:current-layer="Layer_1"
   inkscape:window-maximized="1" />
<path
   d="m 242.74268,409.11846 c 0,0 -16.24059,-21.65411 -17.65282,-24.71394 -1.41222,-3.05982 -7.76723,-11.53317 -9.6502,-13.6515 -1.88297,-2.11834 -5.6489,-5.64891 -7.53187,-6.35502 -1.88297,-0.70611 -4.94279,-1.41222 -7.53187,0 -2.58907,1.41223 -2.82445,1.17686 -3.53056,3.29519 -0.70611,2.11834 -0.23537,3.76594 0,5.17816 0.23537,1.41223 1.17686,4.00131 -1.64759,0 -2.82445,-4.0013 -3.53057,-5.17816 -4.00131,-9.17946 -0.47074,-4.0013 -1.88297,-16.00522 -8.00261,-26.12616 -6.11964,-10.12095 -10.35631,-16.24059 -11.2978,-23.53709 -0.94148,-7.29649 -2.82445,-20.00652 -2.82445,-20.00652 0,0 -1.17685,-8.00261 -3.29519,-9.41483 -2.11834,-1.41223 -3.53056,-2.58908 -8.70872,-0.70612 -5.17816,1.88297 -20.71263,9.17947 -26.83228,11.06243 -6.11964,1.88297 -20.00651,5.41353 -24.24319,6.35502 -4.23667,0.94148 -24.478567,3.53056 -30.362838,6.11964 -5.884271,2.58908 -22.36023,9.6502 -27.538388,12.94539 -5.178159,3.2952 -17.417443,8.70873 -20.712635,9.88558 -3.295191,1.17685 -13.416138,4.47205 -14.122251,4.70742 -0.706112,0.23537 6.590384,-5.6489 12.239285,-11.53317 5.6489,-5.88428 15.299104,-22.12486 17.417442,-25.65543 2.118338,-3.53056 12.239284,-26.36153 14.122251,-29.89209 1.882966,-3.53057 8.708721,-23.77246 9.650204,-28.2445 0.941484,-4.47205 2.353709,-12.71003 0.235371,-15.29911 -2.118337,-2.58908 -6.119642,-6.35501 -12.474655,-6.59038 -6.355012,-0.23537 -16.240588,0.47074 -17.652813,1.41222 -1.412225,0.94149 -3.059821,2.58908 -3.059821,2.58908 0,0 -0.941483,-0.47074 4.001304,-4.70742 4.942788,-4.23667 6.825755,-6.59038 10.356318,-8.70872 3.530562,-2.11833 9.650204,-7.53186 12.003913,-9.17946 2.353708,-1.6476 8.708721,-6.35501 8.708721,-6.35501 0,0 8.002609,-7.76724 9.650204,-10.59169 1.647596,-2.82445 2.118338,-7.53187 0.235371,-9.41483 -1.882966,-1.88297 -10.827059,-7.53187 -10.827059,-7.53187 L 57.035086,159.39 l -12.239284,-5.41353 -10.356317,-4.70742 -7.767238,-4.0013 -5.884272,-4.00131 -4.707417,-4.47204 c 0,0 5.41353,0.47074 10.356318,1.41222 4.942788,0.94148 15.299105,2.11834 17.652813,1.6476 2.353709,-0.47074 15.769847,-4.23668 15.769847,-4.23668 l 10.591688,-3.05982 c 0,0 8.944092,-4.47204 12.003913,-5.41353 3.059821,-0.94148 9.650204,-3.53056 11.768542,-4.23667 2.118338,-0.70612 5.178159,-2.58908 5.178159,-5.41353 0,-2.82445 -0.706113,-8.00261 -2.824451,-11.06243 -2.118337,-3.05982 -5.413529,-6.825761 -8.944092,-8.944091 -3.530562,-2.11834 -5.884271,-2.58908 -8.002608,-1.41223 -2.118338,1.17685 1.882966,-3.05982 1.882966,-3.05982 0,0 3.059821,-1.41223 8.23798,-0.70611 5.178159,0.70611 17.888187,4.23667 19.065037,4.94278 1.17686,0.70612 10.59168,3.765941 15.53447,4.707421 4.94279,0.94148 14.12225,3.05982 17.88819,2.11834 3.76593,-0.94148 7.29649,-2.35371 5.41353,-6.825761 -1.88297,-4.47204 -4.70742,-8.47335 -4.70742,-8.47335 L 140.8271,87.83726 h 3.29519 c 0,0 1.6476,0 6.82576,3.765929 5.17816,3.76594 18.82966,14.828371 18.82966,14.828371 l 28.00914,20.948 17.65281,11.2978 c 0,0 8.00261,3.29519 10.35632,4.00131 2.3537,0.70611 4.94278,-0.70612 6.35501,-1.88297 1.41222,-1.17685 4.0013,-3.29519 4.0013,-3.29519 0,0 1.88297,-3.76593 2.11834,-14.82836 0.23537,-11.06243 0.23537,-25.184681 -1.88297,-41.425274 -2.11833,-16.240588 -2.82445,-29.185985 -3.29519,-34.834885 -0.47074,-5.6489 -0.47074,-12.710025 -1.64759,-14.357621 -1.17686,-1.647596 -3.76594,-4.472046 -4.47205,-5.178159 -0.70611,-0.706112 -0.70611,-1.176854 -0.47074,-3.059821 0.23537,-1.882967 -0.94149,-3.059821 0.47074,-4.942787 1.41223,-1.882967 1.17685,-1.647596 4.0013,-0.706113 2.82445,0.941483 4.47205,1.647596 5.88428,6.355013 1.41222,4.707417 1.41222,5.178158 1.17685,9.414834 -0.23537,4.236675 -0.94148,26.126163 0,30.362838 0.94148,4.236676 1.6476,13.180768 2.35371,18.594297 0.70611,5.413529 2.35371,31.068948 2.35371,35.305628 0,4.23667 -1.41223,17.18207 -0.47075,19.30041 0.94149,2.11834 0.23538,3.76593 2.58908,3.29519 2.35371,-0.47074 10.59169,-0.94148 13.88688,-2.11834 3.2952,-1.17685 12.23929,-5.41353 14.12225,-6.59038 1.88297,-1.17685 24.47857,-14.35762 32.48118,-17.65281 8.00261,-3.2952 20.00652,-7.53187 22.5956,-8.47335 2.58908,-0.94149 11.2978,-5.88428 13.18077,-6.590391 1.88297,-0.70611 7.76724,-3.76593 10.59169,-4.0013 2.82445,-0.23537 6.11964,1.17685 6.11964,1.17685 0,0 -4.47205,0 -6.59038,2.58908 -2.11834,2.589081 -4.00131,6.590381 -3.53057,7.767241 0.47074,1.17685 0,2.82445 4.00131,2.58908 4.0013,-0.23537 14.35762,-0.23537 17.41744,-0.70611 3.05982,-0.47075 3.05982,-0.47075 3.05982,-0.47075 0,0 2.11834,0.94149 4.70742,1.88297 2.58908,0.94148 5.17816,3.05982 6.11964,3.53056 0.94148,0.47075 0.23537,2.58908 1.41222,5.17816 1.17686,2.58908 1.41223,4.47205 3.2952,4.94279 1.88296,0.47074 4.94278,0 1.88296,0.47074 -3.05982,0.47074 -5.6489,-0.70611 -6.82575,-2.58908 -1.17686,-1.88296 -4.00131,-4.0013 -4.00131,-4.0013 0,0 -2.3537,1.64759 -2.82445,2.58908 -0.47074,0.94148 -2.82445,3.53056 -2.11833,5.88427 0.70611,2.35371 1.64759,3.29519 3.53056,4.70742 1.88297,1.41222 18.5943,7.29649 18.5943,7.29649 0,0 21.88948,8.47335 32.2458,10.82706 10.35632,2.35371 17.18207,3.53056 20.24189,4.47205 3.05983,0.94148 7.53187,3.29519 7.53187,3.29519 l 2.82445,2.11834 c 0,0 0.47074,-0.47075 -4.0013,0 -4.47205,0.47074 -21.88949,2.82445 -26.83228,5.17815 -4.94279,2.35371 -18.12355,7.2965 -20.47726,8.70873 -2.35371,1.41222 -11.53317,8.0026 -12.00392,10.59168 -0.47074,2.58908 -0.70611,8.47335 4.00131,12.23929 4.70742,3.76593 14.59299,10.35631 17.41744,12.00391 2.82445,1.6476 9.41483,8.23798 10.35632,8.94409 0.94148,0.70611 2.35371,2.11834 2.35371,2.11834 0,0 -9.17947,-2.82445 -12.71003,-2.82445 -3.53056,0 -9.6502,1.6476 -11.06243,4.0013 -1.41222,2.35371 -4.0013,3.76594 -1.41222,12.47466 2.58908,8.70872 6.11964,21.41875 6.11964,21.41875 l 4.70742,14.82836 5.41352,13.18077 c 0,0 8.00261,17.18207 13.18077,24.94931 5.17816,7.76723 14.35762,19.53578 14.35762,19.53578 l 10.59169,16.71133 c 0,0 -21.18337,-15.29911 -43.5436,-24.2432 -22.36024,-8.94409 -25.65543,-10.59169 -34.12878,-12.9454 -8.47335,-2.35371 -21.88949,-7.06112 -24.94931,-7.53186 -3.05982,-0.47075 -18.82966,-8.70873 -21.65411,-9.41484 -2.82445,-0.70611 -8.23798,-2.82445 -10.82706,-3.29519 -2.58908,-0.47074 -7.2965,-2.82445 -10.12095,1.88297 -2.82445,4.70741 -3.53056,15.76984 -2.35371,20.00652 1.17686,4.23667 7.53187,23.06634 7.53187,23.06634 0,0 3.05982,6.59038 3.05982,9.88558 0,3.29519 -0.94148,6.59038 -1.17685,7.29649 -0.23537,0.70611 -1.41223,-1.64759 -3.05983,-4.0013 -1.64759,-2.35371 -5.17815,-5.41353 -8.47335,-5.41353 -3.29519,0 -5.88427,-1.6476 -8.0026,3.53056 -2.11834,5.17816 -7.53187,21.41875 -8.23798,23.06634 -0.70612,1.6476 -6.11965,16.47596 -6.11965,17.18208 0,0.70611 -4.47204,14.82836 -4.94278,18.82966 -0.47075,4.00131 -3.05982,14.82837 -3.05982,21.65412 0,6.82576 -2.11834,29.18599 -2.11834,30.12747 0,0.94148 -0.94149,19.06504 -0.94149,21.41875 0,2.3537 0,2.3537 0,2.3537 l -0.47074,1.17686 c 0,0 -6.82575,-11.53317 -8.70872,-18.82967 -1.88296,-7.2965 -4.70742,-15.53447 -8.70872,-23.30171 -4.0013,-7.76724 -15.06373,-26.36154 -15.06373,-26.36154 z"
   id="path3"
   style="stroke:#000000;stroke-width:0.94148338" />
</svg>